# xmcd
#
# Track frame offsets:
#	150
#	16506
#	33413
#	55520
#	74269
#	89382
#	97183
#
# Disc length: 1528 seconds
#
# Revision: 1
# Processed by: cddbd v1.4PL0 Copyright (c) Steve Scherf et al.
# Submitted via: audiograbber 1.81.01
#
DISCID=4d05f607
DTITLE=Little Andrew and The Blue Masters - Little Andrew and The Blue Masters
DYEAR=2001
DGENRE=
TTITLE0=Backseat Shuffle
TTITLE1=Loadstone
TTITLE2=Born Blind
TTITLE3=Caddilac
TTITLE4=Little Blue
TTITLE5=El Norska Loco
TTITLE6=Chills And Big Time Trills
EXTD=
EXTT0=
EXTT1=
EXTT2=
EXTT3=
EXTT4=
EXTT5=
EXTT6=
PLAYORDER=
